<?xml version="1.0" encoding="UTF-8"?>
<!-- Created with Inkscape (http://www.inkscape.org/) -->
<svg width="133.1mm" height="133.1mm" version="1.1" viewBox="0 0 133.1 133.1" xmlns="http://www.w3.org/2000/svg" xmlns:cc="http://creativecommons.org/ns#" xmlns:dc="http://purl.org/dc/elements/1.1/" xmlns:rdf="http://www.w3.org/1999/02/22-rdf-syntax-ns#">
 <metadata>
  <rdf:RDF>
   <cc:Work rdf:about="">
    <dc:format>image/svg+xml</dc:format>
    <dc:type rdf:resource="http://purl.org/dc/dcmitype/StillImage"/>
   </cc:Work>
  </rdf:RDF>
 </metadata>
 <g transform="translate(-57.427 -70.189)">
  <g transform="matrix(1.0098 0 0 1.0098 41.511 110.76)">
   <ellipse cx="82.397" cy="25.565" rx="49.826" ry="50.312"/>
   <circle cx="82.397" cy="25.565" r="38.697" fill="#fff"/>
   <circle cx="82.397" cy="25.565" r="31.211"/>
  </g>
  <g fill="#fff" fill-opacity=".99216" fill-rule="evenodd" stroke-width="1.0215">
   <path d="m138.89 152.6h32.129v3.2002z"/>
   <path d="m138.9 121.99h32.129v-3.2002z"/>
   <path d="m108.58 152.99h-32.129v3.2002z"/>
   <path d="m108.58 122.39h-32.129v-3.2001z"/>
  </g>
  <g transform="rotate(90 123.7 137.86)" fill="#fff" fill-opacity=".99216" fill-rule="evenodd">
   <path d="m138.9 152.63h32.129v3.2002z"/>
   <path d="m138.9 121.88h32.129v-3.2002z"/>
  </g>
  <g transform="matrix(0 -1 -1 0 261.56 260.97)" fill="#fff" fill-opacity=".99216" fill-rule="evenodd">
   <path d="m138.9 152.63h32.129v3.2002z"/>
   <path d="m138.9 121.88h32.129v-3.2002z"/>
  </g>
  <rect transform="matrix(.0012977 1 -.99998 .0058087 0 0)" x="122.74" y="-175.51" width="30.892" height="103.24" fill="#fff"/>
  <rect transform="matrix(-1 -.0020246 -.0020957 -1 0 0)" x="-139.6" y="-193.7" width="31.254" height="112.88" fill="#fff"/>
  <g stroke="#fff" aria-label="45">
   <path d="m113.44 145.14v5.176c0 0.98778 0.43462 1.4224 1.4224 1.4224h6.0847c0.98778 0 1.4224-0.43462 1.4224-1.4224v-25.603c0-0.98778-0.43462-1.4224-1.4224-1.4224h-6.0847c-0.98778 0-1.4224 0.43462-1.4224 1.4224v12.169h-3.6745c-0.75071 0-1.2248-0.51365-1.2248-1.3434v-10.826c0-0.98778-0.43463-1.4224-1.4224-1.4224h-6.1242c-0.98778 0-1.4224 0.43462-1.4224 1.4224v13.868c0 4.5043 2.0546 6.5588 7.191 6.5588z"/>
   <path d="m141.25 151.74c4.7413 0 7.7047-2.5287 7.7047-6.5588v-5.492c0-4.1882-2.6472-6.2823-6.9144-6.2823h-5.413v-2.5682h9.4827c0.98777 0 1.4224-0.43462 1.4224-1.4224v-4.7018c0-0.98778-0.43463-1.4224-1.4224-1.4224h-17.029c-0.98777 0-1.4224 0.43462-1.4224 1.4224v14.777c0 0.98778 0.43463 1.4224 1.4224 1.4224h9.7988c0.63217 0 1.0668 0.27658 1.0668 0.90876v1.5409c0 0.63218-0.43463 0.90875-1.0668 0.90875h-10.194c-0.98778 0-1.4224 0.43463-1.4224 1.4224v4.6228c0 0.98778 0.43462 1.4224 1.4224 1.4224z"/>
  </g>
  <path transform="matrix(.26458 0 0 .26458 57.427 70.189)" d="m233.46 463.12c-1.2638-0.18256-6.0204-0.78678-10.57-1.3427-10.944-1.3373-33.685-7.1551-44.578-11.405-18.718-7.3021-37.532-17.859-53.529-30.037-7.8358-5.9649-24.598-21.597-24.598-22.94 0-0.45659 1.0288-1.2989 2.2862-1.8718 2.1337-0.97216 2.8238-0.5241 10.34 6.7138 29.947 28.837 66.327 46.766 109.16 53.797 13.773 2.2608 47.263 2.2865 60.997 0.0469 42.319-6.9011 77.68-24.395 108.63-53.741l8.7767-8.3222 2.4828 1.5065c1.3656 0.82857 2.4828 1.7854 2.4828 2.1264 0 1.2587-17.28 16.844-25.773 23.246-38.057 28.685-81.143 43.052-128 42.681-8.6945-0.0688-16.842-0.27454-18.106-0.4571z" fill="#fff" fill-opacity=".99216" fill-rule="evenodd" stroke-width="3.4739"/>
  <path transform="matrix(.26458 0 0 .26458 57.427 70.189)" d="m448.81 316.68-2.8956-1.761 1.7577-5.7993c4.8968-16.156 7.2994-34.211 7.2941-54.81-0.0178-68.421-33.032-129.59-90.96-168.53-16.61-11.166-40.555-21.733-59.086-26.075l-7.1234-1.6688v-3.9681c0-2.1824 0.31021-3.967 0.68936-3.9658 1.893 0.0064 18.313 4.8385 26.364 7.7584 41.117 14.913 78.234 44.41 103 81.857 14.505 21.928 26.091 50.863 30.768 76.835 5.4371 30.195 4.3316 60.641-3.2833 90.421-3.0679 11.998-2.9805 11.868-6.5294 9.7094z" fill="#fff" fill-opacity=".99216" fill-rule="evenodd" stroke-width="3.4739"/>
  <path d="m124.26 70.963c-36.689 0-66.549 29.86-66.549 66.549 0 36.689 29.86 66.549 66.549 66.549 36.689 0 66.549-29.86 66.549-66.549 0-36.689-29.86-66.549-66.549-66.549zm0 10.992c2.4486 0 4.8586 0.15894 7.2223 0.46405v6.9345l1.9105 0.36327c5.0854 0.96618 9.95 2.7272 14.496 5.2483v-0.0026c4.8392 2.684 9.1641 6.1499 12.856 10.299 3.9012 4.3848 6.9459 9.3584 9.0547 14.797v3e-3h3e-3c2.1873 5.6347 3.2949 11.573 3.2949 17.678 0 5.5952-0.93308 11.053-2.7673 16.256l-0.64648 1.8355 5.7707 3.3512c-1.8958 4.4884-4.3659 8.6714-7.3153 12.462l-5.7371-3.3285-1.2754 1.4609c-4.1513 4.7649-9.2848 8.7781-14.875 11.606l-3e-3 3e-3c-3.347 1.6964-6.8913 3.0015-10.53 3.8752-3.7478 0.90103-7.6222 1.3648-11.514 1.3648-3.8867 0-7.7604-0.45892-11.498-1.3591h-3e-3c-3.6376-0.87357-7.1754-2.1777-10.525-3.869-5.5844-2.8216-10.718-6.8222-14.861-11.578l-1.2738-1.463-5.6632 3.2887c-2.9497-3.7906-5.4189-7.9735-7.3147-12.462l5.6927-3.3042-0.65267-1.8376c-1.847-5.2148-2.7848-10.693-2.7848-16.301 0-6.1125 1.107-12.057 3.3006-17.698h0.0026v-3e-3c2.1154-5.4518 5.165-10.426 9.08-14.818 3.7042-4.155 8.0354-7.6117 12.889-10.297 4.5516-2.5142 9.4298-4.2667 14.529-5.2266l1.9141-0.36174v-6.9169c2.3637-0.30512 4.7743-0.46405 7.2229-0.46405zm-11.922 1.2795v2.3652c-4.885 1.1089-9.6126 2.7789-14.016 5.211l-0.0026 0.0026c-5.3135 2.9392-10.069 6.7332-14.123 11.281-4.2817 4.8036-7.6352 10.272-9.9534 16.246-2.4039 6.1821-3.623 12.717-3.623 19.399 0 5.4614 0.94575 10.797 2.5549 15.945l-1.7689 1.0268c-1.753-5.413-2.7037-11.192-2.7037-17.199 0-26.654 18.643-48.84 43.635-54.277zm23.844 0c24.992 5.4374 43.635 27.624 43.635 54.277 0 6.0075-0.95046 11.787-2.7037 17.2l-1.8547-1.0769c1.597-5.133 2.5368-10.449 2.5368-15.896 0-6.675-1.2167-13.203-3.6132-19.377v-3e-3c-2.3111-5.9597-5.6577-11.426-9.9255-16.223-4.0402-4.5407-8.7872-8.3429-14.088-11.283-4.3966-2.4383-9.1124-4.1147-13.986-5.2302zm27.045 90.992 1.818 1.0552c-10.138 10.946-24.641 17.787-40.785 17.787-16.143 0-30.647-6.841-40.785-17.787l1.6578-0.96327c4.293 4.5778 9.3641 8.4585 14.928 11.27v3e-3c3.6694 1.8526 7.5475 3.2841 11.545 4.2442 4.1034 0.98827 8.3444 1.4883 12.6 1.4883 4.2645 0 8.5042-0.50866 12.611-1.496 3.9969-0.95983 7.8823-2.3908 11.555-4.2519 5.5644-2.8146 10.562-6.7715 14.855-11.348z" color="#000000" color-rendering="auto" dominant-baseline="auto" image-rendering="auto" shape-rendering="auto" solid-color="#000000" style="font-feature-settings:normal;font-variant-alternates:normal;font-variant-caps:normal;font-variant-ligatures:normal;font-variant-numeric:normal;font-variant-position:normal;isolation:auto;mix-blend-mode:normal;paint-order:markers stroke fill;shape-padding:0;text-decoration-color:#000000;text-decoration-line:none;text-decoration-style:solid;text-indent:0;text-orientation:mixed;text-transform:none;white-space:normal"/>
  <g fill-opacity=".99216" fill-rule="evenodd">
   <path transform="matrix(.26458 0 0 .26458 57.427 70.189)" d="m52.32 316.01c-1.5306-4.0078-5.2273-19.991-6.9747-30.155-2.3066-13.418-2.2943-48.628 0.02191-62.502 4.7767-28.611 13.308-52.393 27.154-75.694 26.077-43.884 66.327-76.186 114.52-91.912 7.5829-2.4741 15.131-4.7477 16.774-5.0525 2.9867-0.55402 2.9872-0.55345 2.9872 3.3337v3.8878l-9.9994 2.5957c-11.86 3.0785-29.675 10.081-40.553 15.94-56.001 30.162-94.243 84.385-104.58 148.28-2.4575 15.195-2.1698 48.456 0.54458 62.961 1.7204 9.1934 4.0987 19.29 6.1783 26.228 0.25974 0.86655-0.6415 2.0395-2.3362 3.0406l-2.7591 1.6298z" fill="#fff" stroke-width="3.4739"/>
   <path d="m79.76 171.47c-1.6111-2.1255-3.3671-4.8735-4.8065-7.5219-0.94405-1.737-2.5029-5.0132-2.5029-5.2603 0-0.12428 5.4209-3.3174 5.6319-3.3174 0.06258 0 0.15658 0.13896 0.20887 0.30879 0.17495 0.5682 1.8401 3.9802 2.6917 5.5156 1.0372 1.8699 2.831 4.6337 4.1395 6.3779 0.54102 0.72117 1.0288 1.3819 1.0839 1.4683 0.06546 0.10257-0.79227 0.67181-2.4704 1.6395-1.4139 0.81531-2.7042 1.5676-2.8673 1.6717-0.28096 0.17928-0.33965 0.13258-1.1088-0.88217z"/>
   <path d="m165.29 171.11-2.5179-1.4763 1.0782-1.4187c2.4665-3.2456 4.2644-6.178 6.1378-10.011 0.69227-1.4163 1.2994-2.5524 1.3492-2.5246 0.45805 0.25534 4.836 2.7836 4.8734 2.8144 0.10176 0.0837-2.6524 5.5682-3.6152 7.1991-1.5039 2.5475-4.4997 6.9433-4.7072 6.907-0.0442-8e-3 -1.2134-0.67839-2.5982-1.4904z"/>
  </g>
  <text transform="matrix(.26458 0 0 .26458 57.427 70.189)" font-family="'MS UI Gothic'" font-size="26.667px" letter-spacing="0px" style="line-height:1.25;shape-inside:url(#rect5793);white-space:pre" xml:space="preserve"/>
 </g>
</svg>
