<?xml version="1.0" encoding="UTF-8"?>
<!-- Created with Inkscape (http://www.inkscape.org/) -->
<svg width="133.1mm" height="133.1mm" version="1.1" viewBox="0 0 133.1 133.1" xmlns="http://www.w3.org/2000/svg" xmlns:cc="http://creativecommons.org/ns#" xmlns:dc="http://purl.org/dc/elements/1.1/" xmlns:rdf="http://www.w3.org/1999/02/22-rdf-syntax-ns#">
 <defs>
  <clipPath id="clipPath64271">
   <path d="m-164.33 233.74c-24.682 6.1936-46.853 26.67-64.551 59.618-3.6728 6.8374-6.8834 12.432-7.1348 12.432-0.25142 0-3.109-2.7631-6.3501-6.1401-3.2412-3.377-6.0112-6.1401-6.1558-6.1401-1.0314 0-15.726 44.978-15.726 48.135 0 0.35005 2.7711 3.581 6.1581 7.1799 3.387 3.599 6.2137 6.6135 6.2817 6.6988 0.068 0.0854-0.94754 6.0696-2.2567 13.298-4.0141 22.164-5.3688 41.324-4.862 68.766 0.34649 18.761 0.90593 27.196 2.5597 38.591 6.8855 47.446 20.528 84.343 41.86 113.21 11.532 15.607 29.317 29.784 43.055 34.321l5.7334 1.8933v28.198l5.221 0.9862c6.6008 1.2468 15.981 1.2431 21.747-8e-3l4.4593-0.96798v-14.369c0-13.068 0.14537-14.369 1.6058-14.369 3.3823 0 18.161-7.8759 25.483-13.581 29.22-22.766 51.327-66.573 61.206-121.28 6.8357-37.859 6.8612-82.138 0.06923-120.31-1.3791-7.7502-2.427-14.193-2.3286-14.316 0.09831-0.12361 2.95-3.1203 6.3369-6.6589 3.387-3.5386 6.1581-6.766 6.1581-7.172 0-2.2783-6.7881-24.718-10.768-35.595l-4.6375-12.675-6.5836 6.448-6.5836 6.448-6.2675-11.924c-14.922-28.389-34.302-48.487-55.114-57.157-10.281-4.2828-28.898-5.9999-38.615-3.5617z" fill="#0b45a1" fill-rule="evenodd" style="paint-order:stroke fill markers"/>
  </clipPath>
  <clipPath id="clipPath64275">
   <path d="m117.13 188.7c-11.8-1.6384-22.399-7.0554-30.861-15.771-1.7559-1.8088-3.2908-3.2887-3.411-3.2887s-1.4863 0.73095-3.0359 1.6243c-1.5495 0.89337-2.8739 1.6243-2.943 1.6243-0.49308 0-7.5185-11.899-7.5185-12.734 0-0.0926 1.3248-0.94731 2.9441-1.8994s2.9707-1.7495 3.0032-1.7721c0.0325-0.0226-0.453-1.6057-1.0789-3.5179-1.9191-5.8634-2.5667-10.932-2.3244-18.191 0.16565-4.9631 0.43311-7.1944 1.2237-10.209 3.2918-12.552 9.8138-22.312 20.012-29.95 5.5131-4.1287 14.016-7.8792 20.584-9.0793l2.741-0.50086v-7.4594l2.496-0.26089c3.1557-0.32983 7.6403-0.32886 10.397 2e-3l2.1319 0.25607v3.8012c0 3.4571 0.0695 3.8012 0.76771 3.8012 1.617 0 8.6822 2.0835 12.183 3.5926 13.97 6.0227 24.539 17.611 29.261 32.085 3.268 10.015 3.2802 21.729 0.0331 31.826-0.65932 2.0502-1.1603 3.7545-1.1133 3.7873 0.047 0.0327 1.4103 0.82544 3.0296 1.7616 1.6192 0.93611 2.9441 1.7899 2.9441 1.8973 0 0.6027-3.2453 6.5389-5.1478 9.4163l-2.2171 3.3531-6.295-3.4115-2.9964 3.1544c-7.1339 7.5101-16.399 12.827-26.349 15.12-4.9152 1.133-13.816 1.5872-18.461 0.94221z" fill="#0b45a1" fill-rule="evenodd" style="paint-order:stroke fill markers"/>
  </clipPath>
  <clipPath id="clipPath64301">
   <path d="m117.13 187.91c-11.8-1.5841-22.399-6.8213-30.861-15.248-1.7559-1.7488-3.2908-3.1796-3.411-3.1796-0.1202 0-1.4863 0.7067-3.0359 1.5704-1.5495 0.86373-2.8739 1.5704-2.943 1.5704-0.49308 0-7.5185-11.504-7.5185-12.311 0-0.0895 1.3248-0.91587 2.9441-1.8364 1.6192-0.92048 2.9707-1.6915 3.0032-1.7133 0.0325-0.0219-0.453-1.5524-1.0789-3.4012-1.9191-5.6688-2.5667-10.569-2.3244-17.588 0.16565-4.7984 0.43311-6.9557 1.2237-9.8702 3.2918-12.135 9.8138-21.572 20.012-28.956 5.5131-3.9917 14.016-7.6178 20.584-8.7781l2.741-0.48424v-7.2119l2.496-0.25223c3.1557-0.31889 7.6403-0.31795 10.397 2e-3l2.1319 0.24758v3.6751c0 3.3424 0.0695 3.6751 0.76771 3.6751 1.617 0 8.6822 2.0144 12.183 3.4734 13.97 5.8228 24.539 17.027 29.261 31.02 3.268 9.683 3.2802 21.008 0.0331 30.77-0.65932 1.9822-1.1603 3.6299-1.1133 3.6616 0.047 0.0316 1.4103 0.79807 3.0296 1.7031s2.9441 1.7305 2.9441 1.8343c0 0.58271-3.2453 6.3219-5.1478 9.1038l-2.2171 3.2419-6.295-3.2983-2.9964 3.0497c-7.1339 7.2609-16.399 12.401-26.349 14.619-4.9152 1.0954-13.816 1.5346-18.461 0.91096z" fill="#0b45a1" fill-rule="evenodd" style="paint-order:stroke fill markers"/>
  </clipPath>
 </defs>
 <metadata>
  <rdf:RDF>
   <cc:Work rdf:about="">
    <dc:format>image/svg+xml</dc:format>
    <dc:type rdf:resource="http://purl.org/dc/dcmitype/StillImage"/>
   </cc:Work>
  </rdf:RDF>
 </metadata>
 <g transform="translate(-57.427 -70.189)">
  <g fill="#fff" fill-opacity=".99216" fill-rule="evenodd" stroke-width="5.3993">
   <path transform="matrix(.26458 0 0 .26458 57.427 70.189)" d="m225.71 459.26c-43.865-6.0884-84.333-25.036-116.19-54.403-9.1404-8.4252-10.776-10.552-8.9144-11.593 1.7382-0.97277 4.7683 0.97876 12.765 8.2212 30.82 27.914 66.482 45.225 105.89 51.405 19.138 3.0008 56.728 2.2602 73.592-1.45 36.423-8.013 68.678-24.753 94.504-49.047 8.9563-8.4247 11.722-10.278 14.175-9.4991 2.8981 0.91981 2.777 1.2496-2.4586 6.6969-9.413 9.7937-27.708 23.926-41.177 31.808-21.703 12.7-43.491 20.953-68.007 25.758-14.071 2.7581-50.792 3.9614-64.18 2.1032z"/>
   <path transform="matrix(.26458 0 0 .26458 57.427 70.189)" d="m447.25 312.99c-1.2871-1.5509-1.0195-4.5676 1.1724-13.214 6.5933-26.009 7.5603-61.935 2.3395-86.919-16.022-76.671-70.564-135.23-145.3-156.01-7.107-1.9759-8.3206-2.8001-8.3206-5.6506 0-4.3687 1.2883-4.2654 18.945 1.5185 52.673 17.254 97.837 56.125 122.72 105.62 7.6975 15.31 16.162 41.414 19.07 58.808 4.4933 26.884 2.6178 63.862-4.5465 89.643-2.3854 8.584-3.3174 9.5349-6.0814 6.2046z"/>
   <path transform="matrix(.26458 0 0 .26458 57.427 70.189)" d="m48.851 303.21c-5.142-20.694-6.4015-34.082-5.587-59.392 0.59261-18.416 1.5789-27.262 4.346-38.981 16.976-71.892 69.498-129.31 139.16-152.13 17.674-5.7896 18.945-5.89 18.945-1.4963 0 2.9419-1.1984 3.6779-9.6429 5.9221-62.528 16.618-115.36 66.241-136.7 128.39-12.343 35.955-14.252 79.561-5.0496 115.34 1.9428 7.5529 2.2594 10.943 1.1472 12.283-2.7666 3.3336-3.6557 1.9996-6.6211-9.9348z"/>
  </g>
  <g fill-rule="evenodd">
   <path d="m117.1 189.11c-11.8-1.6384-22.399-7.0554-30.861-15.771-1.7559-1.8088-3.2908-3.2887-3.411-3.2887-0.1202 0-1.4863 0.73095-3.0359 1.6243-1.5495 0.89337-2.8739 1.6243-2.943 1.6243-0.49308 0-7.5185-11.899-7.5185-12.734 0-0.0926 1.3248-0.94731 2.9441-1.8994s2.9707-1.7495 3.0032-1.7721c0.0325-0.0226-0.453-1.6057-1.0789-3.5179-1.9191-5.8634-2.5667-10.932-2.3244-18.191 0.16565-4.9631 0.43311-7.1944 1.2237-10.209 3.2918-12.552 9.8138-22.312 20.012-29.95 5.5131-4.1287 14.016-7.8792 20.584-9.0793l2.741-0.50086v-7.4594l2.496-0.26089c3.1557-0.32984 7.6403-0.32887 10.397 0.0022l2.1319 0.25607v3.8012c0 3.4571 0.0695 3.8012 0.7677 3.8012 1.617 0 8.6822 2.0835 12.183 3.5926 13.97 6.0227 24.539 17.611 29.261 32.085 3.268 10.015 3.2802 21.729 0.0331 31.826-0.65932 2.0502-1.1603 3.7545-1.1133 3.7873 0.047 0.0327 1.4103 0.82545 3.0296 1.7616s2.9441 1.7899 2.9441 1.8973c0 0.6027-3.2453 6.5389-5.1478 9.4163l-2.2171 3.3531-6.295-3.4115-2.9964 3.1544c-7.1339 7.5101-16.399 12.827-26.349 15.12-4.9152 1.133-13.816 1.5872-18.461 0.94222z" fill="#0b45a1" style="paint-order:stroke fill markers"/>
   <path d="m117.13 188.7c-11.8-1.5841-22.399-6.8213-30.861-15.248-1.7559-1.7488-3.2908-3.1796-3.411-3.1796-0.1202 0-1.4863 0.7067-3.0359 1.5704-1.5495 0.86373-2.8739 1.5704-2.943 1.5704-0.49308 0-7.5185-11.504-7.5185-12.311 0-0.0895 1.3248-0.91587 2.9441-1.8364 1.6192-0.92048 2.9707-1.6915 3.0032-1.7133 0.0325-0.0219-0.453-1.5524-1.0789-3.4012-1.9191-5.6688-2.5667-10.569-2.3244-17.588 0.16565-4.7984 0.43311-6.9557 1.2237-9.8702 3.2918-12.135 9.8138-21.572 20.012-28.956 5.5131-3.9917 14.016-7.6178 20.584-8.7781l2.741-0.48424v-7.2119l2.496-0.25223c3.1557-0.31889 7.6403-0.31795 10.397 0.0021l2.1319 0.24758v3.6751c0 3.3424 0.0695 3.6751 0.76771 3.6751 1.617 0 8.6822 2.0144 12.183 3.4734 13.97 5.8228 24.539 17.027 29.261 31.02 3.268 9.683 3.2802 21.008 0.0331 30.77-0.65932 1.9822-1.1603 3.6299-1.1133 3.6616 0.047 0.0316 1.4103 0.79807 3.0296 1.7031s2.9441 1.7305 2.9441 1.8343c0 0.58271-3.2453 6.3219-5.1478 9.1038l-2.2171 3.2419-6.295-3.2983-2.9964 3.0497c-7.1339 7.2609-16.399 12.401-26.349 14.619-4.9152 1.0954-13.816 1.5346-18.461 0.91096z" fill="#005" style="paint-order:stroke fill markers"/>
   <path d="m68.754 175.31a55.223 57.103 0 0 1 55.223-57.103 55.223 57.103 0 0 1 55.223 57.103h-55.223z" clip-path="url(#clipPath64301)" fill="#f5dc0f" stroke="#000" stroke-linecap="round" stroke-linejoin="round" stroke-width="1.5253"/>
   <rect x="122.32" y="118.21" width="3.3048" height="18.036" fill="#c70f2e"/>
  </g>
  <g fill="none" stroke="#000">
   <g stroke-width="1.1389">
    <path d="m123.98 118.21v18.036"/>
    <path d="m130.4 118.5-3.4106 30.171"/>
    <path d="m136.71 119.75-4.0223 17.55"/>
    <path d="m142.9 121.56-10.047 28.544"/>
    <path d="m148.76 124.28-7.8279 16.118"/>
    <path d="m154.37 127.52-16.142 25.379"/>
    <path d="m159.47 131.57-11.211 13.817"/>
    <path d="m164.21 136.06-21.367 20.846"/>
    <path d="m168.27 141.21-13.991 10.771"/>
    <path d="m171.88 146.71-25.44 15.189"/>
    <path d="m174.68 152.69-16.016 7.1442"/>
    <path d="m176.97 158.91-28.142 8.7127"/>
    <path d="m178.36 166.45-17.177 3.1325"/>
    <path d="m111.24 119.75 4.0224 17.55"/>
    <path d="m117.56 118.5 3.41 30.171"/>
    <path d="m99.194 124.28 7.8279 16.118"/>
    <path d="m105.06 121.56 10.047 28.545"/>
    <path d="m88.481 131.57 11.211 13.817"/>
    <path d="m93.582 127.52 16.142 25.379"/>
    <path d="m79.682 141.21 13.991 10.771"/>
    <path d="m83.744 136.06 21.367 20.846"/>
    <path d="m73.271 152.69 16.016 7.1442"/>
    <path d="m76.074 146.71 25.44 15.189"/>
    <path d="m69.593 166.45 17.177 3.1325"/>
    <path d="m70.987 158.91 28.142 8.7132"/>
   </g>
   <path d="m68.754 175.31a55.223 57.103 0 0 1 55.223-57.103 55.223 57.103 0 0 1 55.223 57.103h-55.223z" clip-path="url(#clipPath64275)" stroke-linecap="round" stroke-linejoin="round" stroke-width="1.5253"/>
  </g>
  <g fill-rule="evenodd">
   <path transform="matrix(.26458 0 0 .26458 57.427 70.189)" d="m50.054 307.59c-5.3927-18.159-7.1057-31.761-7.0728-56.164 0.03617-26.881 2.0183-40.256 9.4132-63.52 10.294-32.383 26.231-58.143 51.799-83.724 25.935-25.948 50.557-41.143 84.038-51.863 16.763-5.3669 18.197-5.46 18.197-1.1799 0 2.9353-1.4818 3.7017-13.912 7.1955-28.433 7.9917-57.39 24.621-80.1 45.998-53.428 50.295-75.885 125.41-58.321 195.08 3.0888 12.252 3.1242 12.963 0.70945 14.255-2.1923 1.1733-2.845 0.33773-4.7518-6.0829z" fill="#fff" style="paint-order:stroke fill markers"/>
   <path transform="matrix(.47808 0 0 -.23331 195.69 241.15)" d="m-43.427 206.33-106.57 184.59-106.57-184.59z" clip-path="url(#clipPath64271)" style="paint-order:stroke fill markers"/>
   <path transform="matrix(.26458 0 0 .26458 57.427 70.189)" d="m447.66 313.49c-2.0593-1.1525-1.9604-2.5959 1.0243-14.942 21.983-90.932-21.986-185.35-105.96-227.53-11.27-5.661-27.293-11.687-38.799-14.591-5.1478-1.2994-6.0714-2.0848-6.0714-5.1624 0-3.3505 0.35739-3.552 4.6429-2.6178 36.573 7.9722 79.524 34.289 106.28 65.122 44.961 51.807 61.742 120.07 46.044 187.29-1.6037 6.8681-3.3595 12.762-3.9017 13.097-0.54223 0.33511-2.0116 0.0353-3.2654-0.66642z" fill="#fff" style="paint-order:stroke fill markers"/>
   <rect x="116.73" y="80.702" width="14.5" height="75.306" fill="#1663cf"/>
  </g>
  <g stroke="#fff" aria-label="666">
   <path d="m97.361 151.26c9.0876 0 11.379-3.1609 11.379-7.9812v-3.7931c0-4.7018-2.1336-7.112-9.2851-7.112-2.0941 0-3.7536 0.19755-5.0179 0.59266v-0.86924c0-1.936 0.55316-2.3707 2.4892-2.3707h7.3886c0.98778 0 1.4224-0.43462 1.4224-1.4224v-4.6623c0-0.98777-0.39511-1.4224-1.4224-1.4224h-9.0876c-7.4676 0-9.7197 3.2794-9.7197 8.0998v12.96c0 4.8204 2.1336 7.9812 11.853 7.9812zm-2.9238-10.945c0-0.79022 0.3556-1.4224 2.6472-1.4224 2.3707 0 2.7263 0.63218 2.7263 1.4224v2.3312c0 0.82974-0.3556 1.4619-2.7263 1.4619-2.2916 0-2.6472-0.63217-2.6472-1.4619z"/>
   <path d="m124.74 151.26c9.0876 0 11.379-3.1609 11.379-7.9812v-3.7931c0-4.7018-2.1336-7.112-9.2851-7.112-2.0941 0-3.7536 0.19755-5.0179 0.59266v-0.86924c0-1.936 0.55316-2.3707 2.4892-2.3707h7.3886c0.98778 0 1.4224-0.43462 1.4224-1.4224v-4.6623c0-0.98777-0.39511-1.4224-1.4224-1.4224h-9.0876c-7.4676 0-9.7197 3.2794-9.7197 8.0998v12.96c0 4.8204 2.1336 7.9812 11.853 7.9812zm-2.9238-10.945c0-0.79022 0.3556-1.4224 2.6472-1.4224 2.3707 0 2.7263 0.63218 2.7263 1.4224v2.3312c0 0.82974-0.3556 1.4619-2.7263 1.4619-2.2916 0-2.6472-0.63217-2.6472-1.4619z"/>
   <path d="m152.12 151.26c9.0876 0 11.379-3.1609 11.379-7.9812v-3.7931c0-4.7018-2.1336-7.112-9.2851-7.112-2.0941 0-3.7536 0.19755-5.0179 0.59266v-0.86924c0-1.936 0.55316-2.3707 2.4892-2.3707h7.3886c0.98777 0 1.4224-0.43462 1.4224-1.4224v-4.6623c0-0.98777-0.39511-1.4224-1.4224-1.4224h-9.0876c-7.4676 0-9.7197 3.2794-9.7197 8.0998v12.96c0 4.8204 2.1336 7.9812 11.853 7.9812zm-2.9238-10.945c0-0.79022 0.3556-1.4224 2.6472-1.4224 2.3707 0 2.7263 0.63218 2.7263 1.4224v2.3312c0 0.82974-0.3556 1.4619-2.7263 1.4619-2.2916 0-2.6472-0.63217-2.6472-1.4619z"/>
  </g>
  <path d="m123.98 70.189c-36.689 0-66.549 29.86-66.549 66.549s29.86 66.549 66.549 66.549c36.689 0 66.549-29.86 66.549-66.549s-29.86-66.549-66.549-66.549zm0 10.992c2.4486 0 4.8586 0.15894 7.2223 0.46405v6.9345l1.9105 0.36327c5.0854 0.96618 9.95 2.7272 14.496 5.2483v-0.0026c4.8392 2.684 9.1641 6.1498 12.856 10.299 3.9012 4.3848 6.9459 9.3584 9.0547 14.797v3e-3h3e-3c2.1873 5.6347 3.2949 11.573 3.2949 17.678 0 5.5952-0.93308 11.053-2.7673 16.256l-0.64648 1.8355 5.7707 3.3512c-1.8958 4.4884-4.3659 8.6714-7.3153 12.462l-5.7371-3.3285-1.2754 1.4609c-4.1513 4.7649-9.2848 8.7781-14.875 11.606l-3e-3 3e-3c-3.347 1.6964-6.8913 3.0015-10.53 3.8752-3.7478 0.90103-7.6222 1.3648-11.514 1.3648-3.8867 0-7.7604-0.45892-11.498-1.3591h-3e-3c-3.6376-0.87357-7.1754-2.1777-10.525-3.869-5.5844-2.8216-10.718-6.8222-14.861-11.578l-1.2738-1.463-5.6632 3.2887c-2.9497-3.7906-5.4189-7.9735-7.3147-12.462l5.6927-3.3042-0.65267-1.8376c-1.847-5.2148-2.7848-10.693-2.7848-16.301 0-6.1125 1.107-12.057 3.3006-17.698h0.0026v-3e-3c2.1154-5.4518 5.165-10.426 9.08-14.818 3.7042-4.155 8.0354-7.6117 12.889-10.297 4.5516-2.5142 9.4298-4.2667 14.529-5.2266l1.9141-0.36174v-6.9169c2.3637-0.30512 4.7743-0.46405 7.2229-0.46405zm-11.922 1.2795v2.3652c-4.885 1.1089-9.6126 2.7789-14.016 5.211l-0.0026 0.0026c-5.3135 2.9392-10.069 6.7332-14.123 11.281-4.2817 4.8036-7.6352 10.272-9.9534 16.246-2.4039 6.1821-3.623 12.717-3.623 19.399 0 5.4614 0.94575 10.797 2.5549 15.945l-1.7689 1.0268c-1.753-5.413-2.7037-11.192-2.7037-17.199 0-26.654 18.643-48.84 43.635-54.277zm23.844 0c24.992 5.4374 43.635 27.624 43.635 54.277 0 6.0075-0.95046 11.787-2.7037 17.2l-1.8547-1.0769c1.597-5.133 2.5368-10.449 2.5368-15.896 0-6.675-1.2167-13.203-3.6132-19.377v-3e-3c-2.3111-5.9597-5.6577-11.426-9.9255-16.223-4.0402-4.5407-8.7872-8.3429-14.088-11.283-4.3966-2.4383-9.1124-4.1147-13.986-5.2302zm27.045 90.992 1.818 1.0552c-10.138 10.946-24.641 17.787-40.785 17.787-16.143 0-30.647-6.841-40.785-17.787l1.6578-0.96327c4.293 4.5778 9.3641 8.4585 14.928 11.27v3e-3c3.6694 1.8526 7.5475 3.2841 11.545 4.2442 4.1034 0.98827 8.3444 1.4883 12.6 1.4883 4.2645 0 8.5042-0.50866 12.611-1.496 3.9969-0.95983 7.8823-2.3908 11.555-4.2519 5.5644-2.8146 10.562-6.7715 14.855-11.348z" color="#000000" color-rendering="auto" dominant-baseline="auto" image-rendering="auto" shape-rendering="auto" solid-color="#000000" style="font-feature-settings:normal;font-variant-alternates:normal;font-variant-caps:normal;font-variant-ligatures:normal;font-variant-numeric:normal;font-variant-position:normal;isolation:auto;mix-blend-mode:normal;paint-order:markers stroke fill;shape-padding:0;text-decoration-color:#000000;text-decoration-line:none;text-decoration-style:solid;text-indent:0;text-orientation:mixed;text-transform:none;white-space:normal"/>
  <path d="m117.13 187.91c-11.8-1.5841-22.399-6.8213-30.861-15.248-1.7559-1.7487-3.2908-3.1796-3.411-3.1796-0.1202 0-1.4863 0.70671-3.0359 1.5704-1.5495 0.86373-2.8739 1.5704-2.943 1.5704-0.49308 0-7.5185-11.504-7.5185-12.311 0-0.0895 1.3248-0.91587 2.9441-1.8364 1.6192-0.92048 2.9707-1.6915 3.0032-1.7133 0.0325-0.0219-0.453-1.5524-1.0789-3.4012-1.9191-5.6688-2.5667-10.569-2.3244-17.588 0.16565-4.7984 0.43311-6.9557 1.2237-9.8702 3.2918-12.135 9.8138-21.572 20.012-28.956 5.5131-3.9917 14.016-7.6178 20.584-8.7781l2.741-0.48424v-7.2119l2.496-0.25223c3.1557-0.31889 7.6403-0.31795 10.397 0.0021l2.1319 0.24758v3.6751c0 3.3424 0.0695 3.6751 0.76771 3.6751 1.617 0 8.6822 2.0144 12.183 3.4734 13.97 5.8228 24.539 17.027 29.261 31.02 3.268 9.683 3.2802 21.008 0.0331 30.77-0.65932 1.9822-1.1603 3.6299-1.1133 3.6616 0.047 0.0316 1.4103 0.79807 3.0296 1.7031 1.6192 0.90506 2.9441 1.7305 2.9441 1.8343 0 0.5827-3.2453 6.3219-5.1478 9.1038l-2.2171 3.2419-6.295-3.2983-2.9964 3.0497c-7.1339 7.2609-16.399 12.401-26.349 14.619-4.9152 1.0954-13.816 1.5346-18.461 0.91096z" fill="none" style="paint-order:stroke fill markers"/>
 </g>
</svg>
